<svg width="16" height="16" viewBox="0 0 16 16" fill="none" xmlns="http://www.w3.org/2000/svg">
<g id="Icon">
<path id="Vector" d="M1 7.99999C1 4.13401 4.13401 1 8.00001 1C11.866 1 15 4.13401 15 7.99999C15 11.866 11.866 15 8.00001 15C4.13401 15 1 11.866 1 7.99999ZM8.00001 2.00022L7.95062 2.00042C8.04194 2.17933 8.14195 2.39534 8.23206 2.63476C8.47519 3.28071 8.69578 4.22668 8.30309 5.06287C7.9413 5.83327 7.31793 6.03279 6.85234 6.15309L6.78505 6.17043C6.33231 6.28704 6.14466 6.33537 6.00953 6.54051C5.88312 6.73243 5.90593 6.97329 6.04942 7.44088C6.05963 7.47416 6.07064 7.50925 6.0821 7.54575C6.13908 7.72732 6.20709 7.94402 6.24255 8.14786C6.28663 8.40123 6.29841 8.71982 6.13837 9.02691C5.97808 9.33449 5.76624 9.54321 5.51644 9.6793C5.28132 9.80739 5.03728 9.85625 4.85219 9.88908L4.78358 9.90117C4.42529 9.96415 4.24356 9.99608 4.06879 10.1833C3.93193 10.3299 3.84672 10.5847 3.7973 10.9554C3.77714 11.1066 3.765 11.2566 3.75253 11.4108L3.74584 11.4929C3.73179 11.6635 3.71449 11.8575 3.6767 12.0235L3.65161 12.1339C4.74464 13.2832 6.28865 13.9998 8.00001 13.9998C9.11546 13.9998 10.1598 13.6954 11.0545 13.1651C10.9751 13.087 10.8849 12.9906 10.7963 12.8789C10.5592 12.5805 10.2524 12.0712 10.3589 11.4723C10.4099 11.1852 10.564 10.9436 10.7148 10.7566C10.8685 10.5662 11.0542 10.3899 11.2177 10.2395C11.2563 10.2039 11.2934 10.17 11.329 10.1375C11.4543 10.0231 11.5616 9.92513 11.6533 9.82903C11.7099 9.76981 11.7502 9.72165 11.7775 9.68281C11.8006 9.64993 11.8078 9.63296 11.8089 9.63036C11.8596 9.4625 11.798 9.3394 11.725 9.28297C11.6702 9.24057 11.5297 9.17757 11.2792 9.33629C11.1818 9.39797 11.095 9.45281 11.0252 9.49336C10.9729 9.52379 10.8668 9.58541 10.7509 9.61077C10.6876 9.62457 10.5489 9.64473 10.3977 9.57365C10.2267 9.49333 10.1483 9.34999 10.1167 9.25149C10.089 9.16495 10.0879 9.0878 10.0882 9.05166C10.0885 9.00935 10.0922 8.96899 10.0953 8.93964C10.0979 8.91533 10.101 8.88943 10.1044 8.86183C10.13 8.65122 10.1677 8.34137 10.0474 7.87943C9.95061 7.50798 9.80969 7.22542 9.66578 6.9369C9.59946 6.80392 9.53249 6.66966 9.46894 6.52485C9.38136 6.32532 9.28506 6.06545 9.30199 5.78881C9.32157 5.46912 9.48364 5.20839 9.74492 5.01243C10.062 4.77457 10.4609 4.23016 10.806 3.67884C10.971 3.41514 11.1123 3.16878 11.2125 2.98818C11.2204 2.97385 11.2281 2.95995 11.2355 2.94648C10.302 2.34755 9.19154 2.00022 8.00001 2.00022Z" fill="#FAFAFA"/>
</g>
</svg>
