<svg width="16" height="16" viewBox="0 0 16 16" fill="none" xmlns="http://www.w3.org/2000/svg">
<path d="M10.0031 13.9999C9.87505 14.0004 9.74854 13.9721 9.63285 13.9172C9.51717 13.8624 9.41525 13.7823 9.33458 13.6828L5.19497 8.54046C5.06891 8.3871 5 8.19474 5 7.99622C5 7.7977 5.06891 7.60534 5.19497 7.45199L9.48028 2.30962C9.62576 2.13459 9.83481 2.02452 10.0614 2.00363C10.2881 1.98273 10.5137 2.05272 10.6887 2.1982C10.8638 2.34367 10.9738 2.55272 10.9947 2.77935C11.0156 3.00598 10.9456 3.23163 10.8002 3.40665L6.96909 8.00051L10.6716 12.5944C10.7764 12.7202 10.843 12.8734 10.8634 13.0358C10.8839 13.1983 10.8574 13.3632 10.7871 13.5111C10.7168 13.6589 10.6055 13.7835 10.4666 13.8702C10.3277 13.9568 10.1668 14.0019 10.0031 13.9999Z" fill="#FAFAFA"/>
</svg>
