<svg width="16" height="16" viewBox="0 0 16 16" fill="none" xmlns="http://www.w3.org/2000/svg">
<path d="M5.85144 13.9985C5.65285 13.9988 5.46039 13.9292 5.30748 13.8017C5.22141 13.7299 5.15027 13.6418 5.09812 13.5423C5.04598 13.4428 5.01385 13.3339 5.00359 13.2219C4.99333 13.1098 5.00512 12.9969 5.03831 12.8895C5.0715 12.7821 5.12542 12.6823 5.19698 12.5958L9.00476 8.01173L5.33298 3.41906C5.26237 3.33158 5.20965 3.23092 5.17784 3.12286C5.14602 3.01481 5.13574 2.9015 5.14759 2.78944C5.15944 2.67738 5.19318 2.56878 5.24687 2.46988C5.30057 2.37098 5.37316 2.28374 5.46047 2.21316C5.54841 2.1353 5.65139 2.07657 5.76296 2.04066C5.87453 2.00475 5.99227 1.99243 6.10879 2.00448C6.22531 2.01652 6.3381 2.05268 6.44008 2.11066C6.54206 2.16865 6.63102 2.24722 6.70139 2.34145L10.8066 7.47292C10.9317 7.62596 11 7.81791 11 8.01601C11 8.2141 10.9317 8.40606 10.8066 8.55909L6.5569 13.6906C6.47164 13.7941 6.36333 13.8759 6.24075 13.9294C6.11818 13.9829 5.98481 14.0065 5.85144 13.9985Z" fill="#FAFAFA"/>
</svg>
